<svg width="10" height="9" fill="none" xmlns="http://www.w3.org/2000/svg"><path d="M5.366 6.523a.5.5 0 01-.688 0L2.996 4.925 1.313 3.327a.5.5 0 00-.688 0l-.14.133-.103.098a.5.5 0 000 .725l2.085 1.98a164.283 164.283 0 002.357 2.219c.096.085.205.076.298-.012l2.323-2.206 2.148-2.005a.5.5 0 00-.015-.744l-.063-.055-.136-.13a.5.5 0 00-.693.004l-1.638 1.59-1.682 1.599z" fill="#fff"/><path d="M5.366 3.523a.5.5 0 01-.688 0L2.996 1.925 1.313.327a.5.5 0 00-.688 0L.485.46.382.558a.5.5 0 000 .725l2.085 1.98a164.283 164.283 0 002.357 2.219c.096.085.205.076.298-.013l2.323-2.205 2.148-2.005a.5.5 0 00-.015-.744L9.515.46 9.38.33a.5.5 0 00-.693.004l-1.638 1.59-1.682 1.599z" fill="#fff"/></svg>