<svg width="80" height="21" fill="none" xmlns="http://www.w3.org/2000/svg"><path d="M16.111 8.084c0-.635.497-1.15 1.111-1.15h3c.614 0 1.111.515 1.111 1.15v12.538h-5.222V8.084zm22.778 1.151c0-.636.497-1.15 1.111-1.15h6.667c.613 0 1.11.514 1.11 1.15v2.415c0 .635-.497 1.15-1.11 1.15H40c-.614 0-1.111-.515-1.111-1.15V9.235zM18.722 5.899c1.442 0 2.611-1.21 2.611-2.703 0-1.493-1.169-2.703-2.61-2.703-1.443 0-2.612 1.21-2.612 2.703 0 1.493 1.17 2.703 2.611 2.703z" fill="#E03D22"/><path fill-rule="evenodd" clip-rule="evenodd" d="M37.444 7.849C37.422 3.782 34.142.493 30.122.493c-4.018 0-7.266 3.255-7.322 7.3l-.022 12.139v.69h5.444V7.948c0-1.149.896-2.08 2-2.08 1.105 0 2 .931 2 2.08v12.674h5.222V7.849zM0 20.622h5.268V8.759c0-1.925.67-2.894 2.02-2.894.57 0 1.05.196 1.452.6.402.403.602.888.602 1.464 0 .565-.19 1.06-.58 1.476-.39.415-.848.622-1.395.622-.385 0-.762-.144-1.145-.425v5.872c.54.058.96.087 1.256.087 1.943 0 3.628-.75 5.057-2.237 1.417-1.487 2.132-3.262 2.132-5.314 0-2.11-.715-3.886-2.155-5.338-1.44-1.453-3.203-2.18-5.29-2.18-1.05 0-2.076.243-3.07.716-.993.472-1.82 1.106-2.467 1.913C.558 4.516 0 6.326 0 8.54v12.082zm65.334 0H70.6V8.759c0-1.925.67-2.894 2.021-2.894.57 0 1.05.196 1.451.6.402.403.603.888.603 1.464 0 .565-.19 1.06-.58 1.476-.391.415-.849.622-1.396.622-.385 0-.761-.144-1.144-.425v5.872c.54.058.96.087 1.256.087 1.942 0 3.627-.75 5.056-2.237C79.286 11.837 80 10.062 80 8.01c0-2.11-.714-3.886-2.154-5.338-1.44-1.453-3.204-2.18-5.29-2.18-1.05 0-2.077.243-3.07.716-.994.472-1.82 1.106-2.467 1.913-1.127 1.395-1.686 3.205-1.686 5.419v12.082zM49.223 1.183l.022 12.14c.055 4.043 3.303 7.299 7.322 7.299 4.018 0 7.3-3.29 7.322-7.356V.953h-5.222v12.158h-.001v.056c0 1.149-.895 2.08-2 2.08-1.104 0-2-.931-2-2.08l.001-.056V.953h-5.445v.231zm0-.69h5.444-5.445zm9.444 0h5.222-5.222z" fill="#E03D22"/></svg>