<svg width="10" height="9" viewBox="0 0 10 9" fill="none" xmlns="http://www.w3.org/2000/svg">
<path d="M5.36616 6.52252C5.17318 6.7058 4.87087 6.7058 4.6779 6.52252C4.31092 6.17397 3.68809 5.58241 2.99559 4.92469L1.3135 3.32705C1.12053 3.14376 0.817801 3.14376 0.624828 3.32705L0.484581 3.46025L0.381702 3.55796C0.174149 3.7551 0.174149 4.08591 0.381702 4.28304L2.46696 6.2636C3.55246 7.2946 4.47097 8.16699 4.82424 8.48151C4.91996 8.56673 5.0295 8.55776 5.12242 8.4695C5.46383 8.14524 6.37295 7.28176 7.44493 6.2636L9.59289 4.25866C9.81029 4.05574 9.80358 3.70906 9.57848 3.5147L9.51542 3.46025L9.37898 3.33066C9.18447 3.14591 8.87882 3.14759 8.68635 3.33446L7.04846 4.92469C6.35596 5.58241 5.73314 6.17397 5.36616 6.52252Z" fill="white"/>
<path d="M5.36616 3.52252C5.17318 3.7058 4.87087 3.7058 4.6779 3.52252C4.31092 3.17397 3.68809 2.58241 2.99559 1.92469L1.3135 0.327046C1.12053 0.143763 0.817801 0.143763 0.624828 0.327046L0.484581 0.460251L0.381702 0.557965C0.174149 0.755097 0.174149 1.08591 0.381702 1.28304L2.46696 3.2636C3.55246 4.2946 4.47097 5.16699 4.82424 5.48151C4.91996 5.56673 5.0295 5.55776 5.12242 5.4695C5.46383 5.14524 6.37295 4.28176 7.44493 3.2636L9.59289 1.25866C9.81029 1.05574 9.80358 0.709059 9.57848 0.514704L9.51542 0.460251L9.37898 0.330661C9.18447 0.145915 8.87882 0.147593 8.68635 0.334464L7.04846 1.92469C6.35596 2.58241 5.73314 3.17397 5.36616 3.52252Z" fill="white"/>
</svg>
